# xmcd
#
# Track frame offsets: 
#        150
#        9237
#        19265
#        29222
#        38377
#        49507
#        60332
#        70145
#        79630
#        92757
#        104645
#        117282
#        127850
#        142062
#        155377
#        165482
#
# Disc length: 2382 seconds
#
# Revision: 2
# Processed by: cddbd v1.5.2PL0 Copyright (c) Steve Scherf et al.
# Submitted via: ExactAudioCopy v1.0b3
#
DISCID=c4094c10
DTITLE=Lynn Anderson - 16 Biggest Hits
DYEAR=2006
DGENRE=Country
TTITLE0=Ride, Ride, Ride
TTITLE1=If I Kiss You (Will You Go Away)
TTITLE2=Promises, Promises
TTITLE3=No Another Time
TTITLE4=Big Girls Don't Cry
TTITLE5=Flattery Will Get You Everywhere
TTITLE6=That's a No No
TTITLE7=Stay There Till I Get There [Single Version]
TTITLE8=Rose Garden [Single Version]
TTITLE9=You're My Man [Single Version]
TTITLE10=How Can I Unlove You [Single Version]
TTITLE11=Fool Me [Single Version]
TTITLE12=Cry [Single Version]
TTITLE13=Keep Me in Mind [Single Version]
TTITLE14=What a Man My Man Is [Single Version]
TTITLE15=Top of the World [Single Version]
EXTD=
EXTT0=
EXTT1=
EXTT2=
EXTT3=
EXTT4=
EXTT5=
EXTT6=
EXTT7=
EXTT8=
EXTT9=
EXTT10=
EXTT11=
EXTT12=
EXTT13=
EXTT14=
EXTT15=
PLAYORDER=
